<svg xmlns="http://www.w3.org/2000/svg" viewBox="0 0 160 120" fill="none" role="img" aria-hidden="true">
  <!-- Classic putting green (for variety) — muted, with red flag + ball + putt line. -->
  <path d="M22 78 C 8 52, 44 36, 78 38 C 120 40, 152 50, 150 74 C 148 98, 104 106, 66 102 C 38 99, 32 92, 22 78 Z"
        fill="#ffffff" fill-opacity="0.055"/>
  <path d="M22 78 C 8 52, 44 36, 78 38 C 120 40, 152 50, 150 74 C 148 98, 104 106, 66 102 C 38 99, 32 92, 22 78 Z"
        stroke="#ffffff" stroke-opacity="0.08" stroke-width="1.5"/>
  <ellipse cx="112" cy="76" rx="9" ry="4" fill="#0b1d13" fill-opacity="0.22"/>
  <rect x="110.6" y="30" width="2.6" height="46" rx="1.3" fill="#ffffff" fill-opacity="0.24"/>
  <path d="M113 31 l22 6.5 -22 6.5 z" fill="#e2533b" fill-opacity="0.34"/>
  <circle cx="52" cy="80" r="5" fill="#ffffff" fill-opacity="0.55"/>
  <path d="M56 80 Q86 96 106 79" stroke="#ffffff" stroke-opacity="0.3" stroke-width="1.8"
        stroke-linecap="round" stroke-dasharray="1 7"/>
</svg>
